<svg width="117" height="49" viewBox="0 0 117 49" fill="none" xmlns="http://www.w3.org/2000/svg">
<path d="M20.1986 1.23883C27.2952 5.56543 34.5184 10.081 41.6691 14.3192C42.3904 14.7467 42.5747 15.2257 42.573 16.0135C42.5638 20.1695 42.5776 24.5146 42.5637 28.6706C42.5594 29.9682 41.8956 30.6163 40.6145 30.6342C39.6324 30.6478 38.6499 30.6369 37.6236 30.6369C37.6236 32.0096 37.6236 33.3118 37.6236 34.7397C38.6435 34.7397 39.6519 34.7346 40.6602 34.741C41.8705 34.7488 42.5355 35.3296 42.5571 36.5049C42.5922 38.4173 42.5853 40.3311 42.559 42.2438C42.5468 43.128 42.0824 43.7235 41.2124 43.9756C35.4901 45.6338 29.7722 47.3078 24.0386 48.9262C23.5514 49.0637 22.9327 48.9193 22.4215 48.7584C17.8673 47.3254 12.9226 45.6337 8.35451 44.2474C7.89238 44.0743 7.62334 44.0237 6.85245 44.0237H2.20361C1.00263 43.9893 0.334035 43.2862 0.331476 42.0724C0.322368 37.7515 0.318637 33.4306 0.328035 29.1097C0.330746 27.8635 1.03159 27.1695 2.28954 27.132C2.92281 27.1132 5.19373 27.132 5.19373 27.132C5.19781 25.8509 5.19373 24.1128 5.19373 22.7358C3.51453 22.7358 2.02566 22.7358 0.319552 22.7358C0.319552 19.4132 0.215852 15.9587 0.319466 12.7357C0.337256 12.1823 0.900812 11.447 1.417 11.1403C7.05303 7.79116 11.3995 5.40645 18.5106 1.23875C19.1084 0.888407 19.6467 0.902342 20.1986 1.23883ZM39.1358 17.2817C38.9435 17.0467 38.7933 16.748 38.5514 16.5882C32.2954 12.4546 25.7429 8.69452 19.3264 4.81633C14.5159 7.60059 8.38485 11.1187 3.60067 13.888C3.60067 13.888 3.54578 15.7392 3.60067 15.9807C7.97109 14.6204 12.3466 13.343 16.6865 11.8688C17.1771 11.7218 17.5892 11.6881 17.8989 11.8688C20.5704 13.4273 23.2763 15.18 25.8921 16.831C26.811 17.411 26.9774 18.3882 26.4436 19.2417C25.9219 20.0758 24.9729 20.2834 24.0249 19.7303C23.1436 19.2162 22.303 18.6847 21.4306 18.1549C20.189 17.4009 19.0666 17.5698 18.4042 18.6001C17.7186 19.6665 18.0663 20.8047 19.3264 21.5848L28.2423 27.132L39.1329 27.1296C39.1329 27.1296 39.1329 20.6449 39.1358 17.2817ZM8.19334 40.6369C8.19334 40.6369 19.0897 44.1088 22.8264 45.2697C23.2552 45.4029 23.7885 45.3959 24.2248 45.2765C29.1827 43.9196 34.1526 42.4057 39.0866 40.9647C39.0866 40.0062 39.0866 39.1274 39.0866 38.184C32.406 38.184 18.637 38.2055 18.637 38.2055C17.4796 38.2055 16.7654 37.4609 16.7654 36.382C16.7654 35.3032 17.6053 34.7453 18.637 34.74C19.9884 34.7329 21.342 34.7816 22.6905 34.7183C24.1633 34.6492 25.0553 33.8653 25.0316 32.644C25.006 31.3222 23.9089 30.6289 22.8967 30.6308C16.5433 30.6429 10.1898 30.6369 3.8363 30.6369C3.8363 33.9924 3.8363 37.263 3.8363 40.6369H8.19334Z" fill="white"/>
<path d="M102.516 11.1342C104.805 10.5559 107.154 10.6003 109.72 10.9245L110.934 9.23915L116.71 9.23887C115.92 10.4781 115.191 11.7861 114.456 12.9392C115.676 13.8171 115.773 15.3023 115.765 16.7486C115.738 21.2979 115.755 25.8475 115.755 30.3969C115.755 30.7206 115.755 31.0442 115.755 31.4298C113.92 31.4298 112.156 31.4298 110.321 31.4298C110.321 28.444 110.384 24.9991 110.384 22.0488C109.175 22.8498 107.205 22.9556 104.355 23.2125C103.348 23.3032 102.378 24.0609 102.201 25.1744C101.959 26.6907 102.62 27.6117 104.165 27.7271C105.118 27.7984 106.088 27.6511 107.205 27.594C107.376 28.6789 107.584 29.994 107.804 31.3873C104.68 32.0366 101.712 32.3865 99.1015 30.231C96.491 28.0756 96.2824 24.0272 98.4414 21.5183C99.5121 20.274 101.211 19.8361 102.866 19.6144C104.549 19.3891 106.233 19.1781 107.914 18.9418C108.23 18.8973 108.543 18.7869 108.842 18.6662C109.558 18.3764 110.255 18.0493 110.274 17.1151C110.294 16.1074 110.048 15.1141 109.115 14.7195C107.324 13.9625 105.385 13.8268 103.765 14.8589C103 15.3467 102.357 16.1665 102.357 17.8274C101.086 17.8274 98.6349 17.843 96.9341 17.8274C96.9341 13.0223 100.914 11.5386 102.516 11.1342Z" fill="white"/>
<path d="M83.5771 20.2473C83.5771 21.5291 83.5771 22.5981 83.5771 23.9133C82.2984 23.9133 80.8537 23.9133 79.5942 23.9133C79.4563 26.2108 81.7009 27.7527 83.7187 27.6063C87.6434 27.3214 88.9572 24.3888 88.9572 21.0241C88.9572 17.9535 87.6383 14.9975 83.3978 14.9975C80.395 14.9975 79.5323 17.2278 79.42 18.1944C77.9116 18.2466 75.9675 18.1944 74.3809 18.1944C74.6012 9.52137 88.604 8.32597 92.4905 14.9975C95.6695 19.4374 94.8352 26.3217 90.5943 29.7625C86.4684 33.1099 79.4197 32.3844 76.2845 28.5955C74.3811 26.2954 74.1751 23.3824 74.1751 20.2473C77.2961 20.2473 80.4561 20.2473 83.5771 20.2473Z" fill="white"/>
<path d="M54.7947 23.8068C56.4892 23.8068 58.156 23.8068 59.9137 23.8068C59.9137 24.9971 59.9137 26.018 59.9137 27.4057C61.5717 27.3082 63.1384 27.4598 64.688 27.281C65.431 27.1952 66.247 26.866 66.3317 25.9566C66.4155 25.0563 66.2596 24.5237 65.2397 24.1096C62.6961 23.0769 61.0932 23.1316 58.4886 22.3969C56.1585 21.7397 54.5106 20.3749 54.2667 18.4339C53.9803 16.1549 54.6045 14.1089 56.4834 12.6583C59.1659 10.5874 62.7261 10.3754 66.0763 11.0455C67.9573 11.4217 69.5234 12.3776 70.797 13.9499C69.5281 15.0004 68.3748 15.8733 67.137 16.898C65.5373 14.9772 63.4904 14.404 61.1819 15.0446C59.2682 15.5756 58.4654 17.7181 61.0389 18.5617C64.0061 19.5342 66.6337 19.2305 69.382 21.0626C71.3163 22.3522 71.6009 24.2304 71.4249 26.256C71.2498 28.2707 70.2566 29.7126 68.3807 30.5151C66.3951 31.3645 64.2813 31.4365 62.1752 31.475C59.7432 31.5195 57.3098 31.475 54.7947 31.475C54.7947 28.9155 54.7947 26.3663 54.7947 23.8068Z" fill="white"/>
<path fill-rule="evenodd" clip-rule="evenodd" d="M83.2707 44.0528H86.0242C88.8808 44.1081 89.7233 43.5061 90.1296 43.2158C90.1768 43.1821 90.2181 43.1525 90.256 43.1288L89.8085 44.1145H92.355L93.1642 41.8915H96.9773L97.8351 44.1145H102.093C102.093 42.6712 102.097 41.2279 102.101 39.7846C102.103 38.8181 102.106 37.8516 102.108 36.8852C102.782 37.998 103.459 39.1216 104.135 40.2458C104.914 41.5397 105.693 42.8345 106.471 44.1145H109.615V39.306C110.088 39.866 110.56 40.4275 111.032 40.9889L111.032 40.9894C111.912 42.0366 112.792 43.084 113.683 44.1217C113.683 44.1217 115.803 44.1145 116.95 44.1145L112.018 38.5717C112.742 37.8042 113.443 37.0533 114.157 36.2888C114.897 35.4959 115.651 34.6885 116.458 33.8329H113.388C112.547 34.8337 110.94 36.5447 109.882 37.6723C109.788 37.7719 109.699 37.8669 109.615 37.9565V33.8329H107.147V40.9436C106.359 39.6357 102.921 33.8329 102.921 33.8329H99.8699C99.8699 33.8329 99.8638 40.066 99.8638 42.8642L96.0083 33.8329H94.1966C94.1966 33.8329 91.8899 39.2395 91.0713 41.1592C91.0713 39.6646 89.9482 38.6369 88.976 38.6369C91.0713 38.3859 91.8213 34.0823 87.672 33.8329C87.672 33.8329 86.2497 33.8329 83.3207 33.8329L83.2707 44.0528ZM95.0293 36.9465L96.2575 39.9932H93.8015C93.9681 39.5478 94.1684 39.0673 94.3754 38.5707C94.5967 38.0398 94.8257 37.4906 95.0293 36.9465ZM85.3406 35.7073H87.3038C87.902 35.7073 88.387 36.1923 88.387 36.7906C88.387 37.3888 87.902 37.8738 87.3038 37.8738H85.3406V35.7073ZM87.6127 39.7426H85.3406V42.0993H87.6127C88.2635 42.0993 88.791 41.5718 88.791 40.921C88.791 40.2702 88.2635 39.7426 87.6127 39.7426Z" fill="white"/>
<path d="M54.4906 36.9878C55.9336 32.0143 64.3826 32.8068 64.3826 37.1392C63.5935 37.1392 62.9082 37.1392 62.0646 37.1392C61.6425 35.8418 61.0986 35.396 59.5365 35.396C56.1658 35.396 55.7356 41.0857 58.6299 42.021C60.2687 42.5506 61.8015 41.9082 62.0646 40.028C61.4158 40.028 60.5833 40.028 59.8605 40.028C59.8605 39.4299 59.8605 39.0333 59.8605 38.4267C61.3547 38.4267 62.9151 38.4267 64.5446 38.4267C64.5446 40.2776 64.3072 42.0978 62.3958 43.4297C60.9903 44.4089 57.7843 44.3518 56.1658 43.1735C54.1376 41.6967 53.9366 38.897 54.4906 36.9878Z" fill="white"/>
<path d="M75.7615 39.7203C74.3852 39.7203 73.033 39.7203 71.6469 39.7203C71.6469 41.1268 71.6469 42.5042 71.6469 43.9573C70.8933 43.9573 70.0604 43.9573 69.3097 43.9573C69.3097 40.6177 69.3097 37.2691 69.3097 33.8317C70.0122 33.8317 70.8438 33.8317 71.6069 33.8317C71.6069 35.0451 71.6069 36.2542 71.6069 37.5309C72.9686 37.5309 75.7615 37.5309 75.7615 37.5309C75.7615 36.3493 75.7615 35.147 75.7615 33.8442C75.7615 33.8442 77.2704 33.8442 78.0382 33.8442C78.0382 37.2407 78.0382 40.5599 78.0382 43.9573C77.2755 43.9573 76.5721 43.9852 75.7615 43.9852C75.7615 42.5635 75.7615 41.1419 75.7615 39.7203Z" fill="white"/>
</svg>
